<svg version="1.2" xmlns="http://www.w3.org/2000/svg" viewBox="0 0 400 310" >
	<title>image2vector-svg</title>
	<style>
		.s0 { fill: #ec6c0c } 
		.s1 { fill: #233cd3 } 
		.s2 { fill: #1e1e1e } 
		.s3 { fill: #d4844c } 
		.s4 { fill: #626db2 } 
	</style>
	<g id="svgg">
		<path id="path0" fill-rule="evenodd" class="s0" d="m124.4 58.9c1.2 0 1.8 0 1.1 0.1-0.6 0.1-1.7 0.1-2.3 0-0.6-0.1-0.1-0.1 1.2-0.1zm8.9 0.3c1.1 0 1.6 0 1 0.1-0.5 0.1-1.4 0.1-2 0-0.5-0.1-0.1-0.1 1-0.1zm11.2 2c1.6 0.4 3.6 0.8 4.5 1 7.6 1.3 19.9 9.4 22.7 14.9 0.4 0.7 1 1.7 1.4 2.2 0.4 0.4 0.9 1.5 1.2 2.4 0.5 1.5 1.7 4.3 2.3 5.5 0.1 0.3 0.3 1.1 0.3 1.7 0.1 0.7 0.2 1.4 0.4 1.6 0.1 0.1 0.3 0.7 0.3 1.2 0 0.5 0.1 2.3 0.3 3.9 0.6 4.5 0 10.4-1.8 19-0.2 0.7-0.7 2-1.1 2.9-0.5 0.9-1.1 2.3-1.5 3.2-1.3 3.5-5.8 9.1-8.9 11.2-0.7 0.5-1.3 1-1.3 1.1 0 0.2-1 0.8-2.4 1.5-1.3 0.6-2.4 1.3-2.5 1.4 0 0.1-0.2 0.2-0.5 0.2-0.5 0-2.2 0.9-2.5 1.3-0.1 0.1-0.5 0.3-0.9 0.3-0.4 0-0.7 0.1-0.7 0.3 0 0.1-0.4 0.3-0.9 0.3-1.3 0-5.2 0.8-7.8 1.5-1.3 0.4-3 0.6-3.8 0.6-1.6 0-2.1 0.6-0.5 0.7 0.9 0.1 0.8 0.1-0.4 0.3-0.7 0.1-1.5 0-1.8-0.2-0.3-0.2-4-0.3-10.3-0.3h-9.9l-0.4 0.7c-0.5 0.6-0.5 2.7-0.4 15.6 0.1 17 0.4 15.6-2.8 15.7-3.1 0.2-6 0-6.8-0.3-0.5-0.3-0.8-0.3-0.9-0.1-0.3 0.5-8.3 0.3-9.7-0.2-1.2-0.4-1.1-0.4-5.3 0.6-0.6 0.2-2.2 0.3-3.4 0.2-1.2-0.1-4-0.2-6.1-0.2-2.2 0-4-0.2-4.3-0.3-0.4-0.4-0.5-111.7-0.1-112.1 0.7-0.7 63.3 0 66.3 0.7zm-67.9 1.2c0.1 0.7 0.1 1.9 0 2.6 0 0.8-0.1 0.2-0.1-1.3 0-1.4 0.1-2 0.1-1.3zm0 12.2c0.1 0.3 0.1 0.9 0 1.3 0 0.4-0.1 0.1-0.1-0.6 0-0.7 0-1 0.1-0.7zm41.3 13.4c-0.6 0.6-0.1 24.3 0.5 24.8 1.2 1.3 4.8 1.6 9.1 0.9 5.2-0.8 7.9-2.6 9.6-6.4 1.9-3.9 1.8-11.4 0-13.9-0.4-0.5-0.7-1-0.7-1.2 0-0.4-2.9-3.2-3.7-3.6-0.4-0.2-1.3-0.5-1.9-0.7-1.7-0.5-12.4-0.5-12.9 0.1zm-41.3 8.9c0.1 5.1 0.1 13.4 0 18.4 0 5.1 0 0.9 0-9.2 0-10.1 0-14.3 0-9.2zm42.1-7.4c0.1 0.3 0.1 0.8 0 1.2-0.1 0.4-0.1 0.2-0.1-0.5 0-0.7 0-1 0.1-0.7zm0 8.8c0.1 2.4 0.1 6.4 0 9 0 2.5-0.1 0.5-0.1-4.4 0-5 0.1-7 0.1-4.6zm3.5 14.1c1.3 0 1.8 0.1 1.2 0.1-0.7 0.1-1.7 0.1-2.4 0-0.6 0-0.1-0.1 1.2-0.1zm-45.3 24.7c0.1 0.8 0.1 2.2 0 3.1 0 0.9-0.1 0.2-0.1-1.5 0-1.7 0.1-2.4 0.1-1.6zm0.4 16.9c0 0.5 0 1.4 0 2-0.1 0.5-0.2 0.1-0.2-1 0-1.1 0.1-1.6 0.2-1zm41.4 4.8c0.1 0.3 0.1 0.8 0 1.1-0.1 0.3-0.1 0-0.1-0.6 0-0.6 0-0.8 0.1-0.5zm-41.4 4.5c0 0.5 0 1.5 0 2.1-0.1 0.7-0.2 0.2-0.2-1 0-1.2 0.1-1.7 0.2-1.1zm41.4 3.5c0.1 0.5 0.1 1.3 0 1.7-0.1 0.5-0.1 0.1-0.1-0.8 0-1 0-1.3 0.1-0.9zm-41.4 2.8c0 0.5 0 1.3 0 1.9-0.1 0.5-0.2 0.1-0.2-0.9 0-1 0.1-1.5 0.2-1zm15.4 4.5c1.9 0.2 1.9 0.3 0.2 0.4-0.9 0-1.6-0.1-1.5-0.3 0.1-0.1 0.7-0.2 1.3-0.1zm-5.8 0.2c2.2 0 3 0 2 0.1-1.1 0.1-2.8 0.1-3.9 0-1.1-0.1-0.2-0.1 1.9-0.1zm14.3 0c1.1 0 1.5 0 1 0.1-0.6 0.1-1.5 0.1-2 0-0.6-0.1-0.1-0.1 1-0.1zm10.6 0c1.1 0 1.5 0 1 0.1-0.4 0.1-1.3 0.1-1.8 0-0.6-0.1-0.2-0.1 0.8-0.1z"/>
		<path id="path1" fill-rule="evenodd" class="s1" d="m276 129.8c0.2 0.2 1.5 0.5 2.9 0.5 1.3 0.1 3.2 0.3 4 0.5 0.9 0.2 2.3 0.6 3.3 0.7 0.9 0.2 1.8 0.5 2 0.6 0.1 0.2 0.7 0.3 1.2 0.3 0.6 0 1.1 0.1 1.2 0.3 0.1 0.2 0.5 0.3 0.8 0.3 0.3 0 1.1 0.2 1.6 0.5 0.6 0.2 1.6 0.6 2.3 0.9 11.3 4.8 21.2 14.2 24.8 23.4 0.2 0.4 0.7 1.5 1.1 2.5 0.5 0.9 0.8 1.9 0.8 2.2 0 0.3 0.2 0.5 0.4 0.5 0.1 0 0.3 0.3 0.3 0.7 0 0.3 0.2 1.3 0.4 2.1 0.5 1.7 1.4 5.8 1.8 8.8 0.4 3.2 0.6 19 0.3 20.3-0.2 0.6-0.4 1.8-0.5 2.8-0.1 0.9-0.5 3.3-1 5.2-0.4 2-0.8 4-0.9 4.6-0.1 0.6-0.3 1-0.5 1-0.1 0-0.3 0.3-0.3 0.6 0 0.3-0.3 1.2-0.7 2.1-0.5 0.9-0.8 1.8-0.8 1.9 0 0.4-2.1 4.3-2.8 5.4-0.3 0.4-0.6 0.9-0.6 1 0 1-5.9 7.7-9.1 10.3-1.2 0.9-2.3 1.8-2.4 2 0 0.1-0.9 0.6-2 1.2-1 0.5-2 1.1-2.3 1.3-0.2 0.2-0.9 0.6-1.4 0.8-0.5 0.3-1.4 0.8-2.1 1.2-0.6 0.4-1.4 0.7-1.7 0.7-0.4 0-0.7 0.1-0.7 0.3 0 0.1-0.3 0.3-0.7 0.3-0.4 0-0.8 0.1-0.9 0.3-0.1 0.1-0.7 0.3-1.2 0.4-1.4 0.3-5.3 1.4-5.9 1.8-0.3 0.1-1 0.3-1.6 0.3-0.6 0-1.5 0.2-2.1 0.4-0.7 0.3-1.8 0.5-2.6 0.5-0.7 0-1.4 0.1-1.4 0.3 0 0.2-1.7 0.3-4.6 0.3-5.2 0-6.4 0.6-1.5 0.7 1.6 0-0.5 0.1-4.7 0.2-4.2 0.2-7.7 0.1-7.9 0-0.6-0.4-41.4-0.5-41.1 0 0 0.1-0.3 0.2-0.7 0.1-0.5-0.1-0.7-0.2-0.6-0.3 0.2 0 0.3-19 0.3-56.3-0.1-47.1 0-56.3 0.3-56.5 0.6-0.5 56.9-0.4 57.5 0zm-58.6 1.1c0.1 0.5 0.1 1.3 0 1.9-0.1 0.5-0.1 0.2-0.1-0.9 0-1 0-1.4 0.1-1zm40.5 29.3c-1.5 0.3-1.4-0.6-1.4 25.8 0 29.1-0.5 25.9 4.1 26.1 2.6 0.2 3.9 0 9.6-0.8 2.6-0.4 4.9-1.2 5.9-2.1 0.4-0.4 0.8-0.7 0.9-0.7 0.1 0 1-0.7 1.9-1.6 3.5-3.3 5.2-7.1 6.6-14.7 0.6-3.2 0.4-11.4-0.3-13.9-0.4-1.2-0.7-2.5-0.8-3-0.4-2.5-2.1-6.9-3.1-7.7-0.2-0.2-0.4-0.5-0.4-0.6 0-0.5-2.8-3.1-3.9-3.7-0.9-0.4-1.3-0.7-2.1-1.4-0.3-0.2-0.6-0.4-0.9-0.4-0.2 0-0.5-0.1-0.7-0.3-0.2-0.1-1-0.4-1.8-0.6-1.6-0.4-12.5-0.7-13.6-0.4zm5.4 0.8c1.4 0 2 0 1.3 0.1-0.7 0.1-1.9 0.1-2.7 0-0.7-0.1-0.1-0.1 1.4-0.1zm-45.9 36.4c0 8.1 0 21.5 0 29.7 0 8.2-0.1 1.6-0.1-14.7 0-16.4 0.1-23.1 0.1-15z"/>
		<path id="path2" fill-rule="evenodd" class="s2" d="m138.6 59.5c0.8 0 1.1 0 0.7 0.1-0.4 0.1-1 0.1-1.4 0-0.4-0.1-0.1-0.1 0.7-0.1zm51.7 79.7c0 0.2-0.3 0.3-0.6 0.3-2.6 0-3.1 5.8-0.6 7.8 0.6 0.5 0.6 0.6 0.2 0.9q-0.4 0.3 0 0.3c0.2 0 0.3 0.3 0.3 0.6q0 0.7 0.5 0.5 0.4-0.1 0.3 0.4c-0.1 0.3 0 0.7 0.3 0.9 0.3 0.3 0.5 0.6 0.5 0.9 0 0.2 0.1 0.4 0.3 0.4 0.2 0 0.3 0.2 0.3 0.5 0 0.2 0.1 0.4 0.3 0.4 0.2 0 0.3 0.2 0.3 0.4 0 0.1 0.4 0.7 0.8 1.1 0.4 0.5 0.8 1 0.8 1.1 0 0.6 0.9 1.3 1.2 0.8q0.3-0.4 0.1 0.4c-0.1 0.8-0.1 0.9 0.5 0.9 0.6 0 0.7-0.2 0.6-0.6q-0.2-0.7 0.3-0.7c0.3 0 0.4-0.2 0.3-1-0.1-0.8 0-1 0.3-0.9 0.3 0.1 0.4-0.4 0.4-2.2 0-2.2-0.1-2.4-0.6-2.4-0.7 0-0.9-0.4-0.3-0.6 1-0.4 3.3-0.3 3.5 0.1q0.3 0.3-0.2 0.1c-0.7-0.2-0.8 1.2-0.2 1.5 0.2 0.1 0 0.1-0.5 0l-0.9-0.2 0.2 1.8c0.1 1.3 0 1.8-0.3 1.9-0.2 0.1-0.4 0.6-0.4 1.2 0 0.6-0.1 1-0.2 1-0.4 0-1 1.6-1 2.3 0 0.3 0.1 0.5 0.3 0.5 0.1 0 0.3 0.2 0.3 0.4 0 0.1 0.4 0.7 1 1.3 2 1.9 1.6 2.7-1.4 2.6-1.5 0-1.6 0-0.9-0.3 0.7-0.3 0.8-0.4 0.2-0.5-0.4-0.1-1-0.5-1.3-0.9-0.8-0.8-1.5-0.9-1.8-0.4-0.3 0.5-0.8 0.4-0.8-0.2q0-0.5 0.5-0.3c0.3 0.1 0.4 0 0.4-0.6 0-0.4-0.1-0.8-0.3-0.8-0.1 0-0.3-0.2-0.3-0.4 0-0.3-0.1-0.5-0.3-0.5-0.1 0-0.3-0.2-0.3-0.5 0-0.2-0.2-0.4-0.4-0.4-0.3 0-0.6-0.4-0.9-0.9-0.2-0.5-0.7-1-1-1-0.5-0.1-0.6-0.3-0.5-0.9 0-0.7-0.1-0.9-0.8-1.1-0.7-0.1-0.8-0.2-0.4-0.5 0.3-0.2 0.4-0.3 0.1-0.5-0.2 0-0.4-0.4-0.4-0.7 0-0.6-0.5-0.8-0.7-0.3 0 0.2-0.3 0-0.5-0.4-0.4-0.6-0.4-0.6 0.1-0.2 0.5 0.4 0.5 0.4 0.4-0.3-0.1-0.5-0.3-0.8-0.5-0.7-0.2 0-0.3-0.1-0.2-0.4 0.2-0.3 0-0.5-0.6-0.5-0.9 0-1.8 0.7-1.7 1.3 0.1 0.2-0.1 0.4-0.3 0.4-0.2-0.1-0.4 0.3-0.4 1.3 0 0.8-0.1 1.3-0.3 1.2-0.2-0.1-0.3 0.4-0.3 1.4 0 0.8 0.2 1.5 0.3 1.5 0.1 0 0.3 0.6 0.3 1.3 0 0.8 0.1 1.4 0.3 1.5 0.2 0 0.4 0.3 0.4 0.5 0 0.6 1.5 1.7 2.3 1.7 0.4 0 0.8 0.2 0.9 0.5 0.1 0.2 0.4 0.4 0.7 0.4 0.4 0 0.9 0.3 1.2 0.6 0.7 0.5 0.6 0.5-1.5 0.4-2 0-2.1 0-1.7 0.5 0.4 0.4 0.3 0.4-0.3 0-0.4-0.2-0.6-0.4-0.4-0.5 0.8-0.3 0.2-0.7-0.9-0.7-0.7 0-1.3-0.1-1.3-0.3 0-0.1-0.2-0.3-0.4-0.3-0.6 0-2.7-2-2.7-2.6 0-0.3-0.1-0.5-0.3-0.5-0.3 0-0.4-0.7-0.3-2.8 0-1.5 0-2.9-0.2-3.1-0.2-0.3-0.2-0.7-0.1-1 0.2-0.6 0.3-0.6 0.3-0.1 0 0.6 0.6 0.7 0.6 0.1 0-0.5 1.1-1.6 2.7-2.9 0.2-0.2 0.7-0.4 1.1-0.4q0.6 0 0.5-0.4c-0.1-0.3 0-0.4 0.6-0.3 0.5 0.1 0.7 0 0.7-0.3 0-0.3-0.1-0.5-0.3-0.5-0.2 0-0.3-0.5-0.3-1q0-1-0.4-0.8c-0.3 0.1-0.4-0.3-0.3-1.9 0.1-1.1 0.3-2.1 0.4-2.2 0.2 0 0.3-0.2 0.3-0.4 0-0.6 1.2-1.7 2.2-2.1 1-0.4 3.1-0.4 3.1 0zm3.4 3.4c0 1.2-0.2 2.2-0.3 2.2-0.4 0-0.7-2-0.5-3.3 0.3-1.8 0.8-1.2 0.8 1.1zm-0.8 2.5c0.3 0.3-0.8 1.5-1.4 1.5-0.5 0-0.4-0.1 0.4-1 0.4-0.5 0.8-0.7 1-0.5zm-2.2 16.8c0.3 0.1 0.7 0.2 0.8 0.2 0.2 0 0.3 0.1 0.3 0.3 0 0.2-0.3 0.3-0.8 0.3q-0.7 0-0.7-0.5 0-0.5 0.4-0.3zm-95 12.4c0.9 0 1.3 0 0.9 0.1-0.4 0.1-1.1 0.1-1.5 0-0.5-0.1-0.2-0.1 0.6-0.1zm164.2 68.9c-0.3 0.1-0.9 0.2-1.3 0.2-0.7 0-0.7 0 0.2-0.2 1.3-0.4 1.6-0.4 1.1 0zm-8.5 0c0.6 0 0.9 0.1 0.7 0.2-0.3 0-0.9 0-1.3 0-0.4-0.1-0.1-0.2 0.6-0.2z"/>
		<path id="path3" fill-rule="evenodd" class="s3" d="m127 59.1c2.9 0.1 8.1 0.3 11.5 0.5 3.5 0.1 6.4 0.3 6.5 0.5 0.1 0.1 0.9 0.2 1.8 0.2 0.9 0 1.7 0.2 1.8 0.3 0.2 0.2 0.9 0.3 1.6 0.3 0.8 0 1.4 0.2 1.4 0.4 0 0.1 0.3 0.3 0.7 0.3 0.4 0 1 0.2 1.3 0.4 0.2 0.3 0.7 0.5 1.1 0.5 0.3 0 0.8 0.1 1.1 0.3 0.3 0.1 1.1 0.5 1.7 0.8 2.2 1 5.8 3.1 6.2 3.5 0 0.1 0.7 0.6 1.3 1.1 2.4 1.8 2.4 1.8 5.1 4.6 0.7 0.8 1.3 1.6 1.3 1.8 0 0.2 0.3 0.6 0.8 0.9 0.4 0.4 0.7 0.9 0.7 1.2 0 0.4 0.1 0.6 0.3 0.6 0.1 0 0.4 0.5 0.6 1 0.3 0.6 0.6 1.1 0.7 1.2 0.4 0.4 1.2 2.3 1.2 2.8 0 0.3 0.2 0.6 0.3 0.6 0.2 0 0.3 0.4 0.3 0.8 0 0.4 0.2 0.8 0.3 0.8 0.2 0 0.4 0.5 0.5 1.2 0.1 0.7 0.3 1.3 0.5 1.4 0.2 0.1 0.3 0.6 0.3 1.2 0 0.6 0.1 1.2 0.3 1.3 0.2 0.1 0.3 1 0.3 2.1 0 1.1 0.1 2.1 0.3 2.2 0.2 0.1 0.3 2.8 0.3 7.1 0 4.3-0.1 7-0.3 7.1-0.2 0.1-0.3 1-0.3 2 0 1-0.1 1.9-0.3 2-0.2 0.1-0.3 0.6-0.3 1.1 0 0.9-0.9 3.3-1.9 5.4-0.2 0.3-0.3 0.7-0.3 1 0 0.2-0.1 0.4-0.3 0.4-0.2 0-0.3 0.3-0.3 0.6 0 0.4-0.1 0.7-0.3 0.8-0.3 0.2-1.2 2-1.2 2.4 0 0.2-0.2 0.5-0.4 0.7-0.8 0.8-1.8 2-1.8 2.2 0 0.3-6 6.1-7.1 6.8-0.7 0.4-1.3 0.9-1.4 1.1-0.1 0.1-0.5 0.3-0.8 0.3-0.3 0-0.6 0.1-0.6 0.2 0 0.1-0.3 0.4-0.6 0.6-2.7 1.4-3.9 2-4.4 2-0.3 0-0.6 0.1-0.6 0.2-0.1 0.2-0.4 0.4-0.8 0.4-0.3 0.1-0.8 0.3-1 0.5-0.2 0.2-0.8 0.4-1.3 0.4-0.5 0-1 0.1-1.1 0.3-0.1 0.2-0.6 0.3-1.2 0.3-0.6 0-1.1 0.2-1.2 0.3-0.1 0.2-1 0.3-1.8 0.3-0.9 0-1.8 0.2-2 0.4-0.6 0.6-5.7 0.6-5.7-0.1 0-0.1 0.7-0.3 1.5-0.3 0.8 0 2.5-0.2 3.8-0.6 2.6-0.7 6.5-1.5 7.8-1.5 0.5 0 0.9-0.2 0.9-0.3 0-0.2 0.3-0.3 0.7-0.3 0.4 0 0.8-0.2 0.9-0.3 0.3-0.4 2-1.3 2.5-1.3 0.3 0 0.5-0.1 0.5-0.2 0.1-0.1 1.2-0.8 2.5-1.4 1.4-0.7 2.4-1.3 2.4-1.5 0-0.1 0.6-0.6 1.3-1.1 3.1-2.1 7.6-7.7 8.9-11.2 0.4-0.9 1-2.3 1.5-3.2 0.4-0.9 0.9-2.2 1.1-2.9 1.8-8.6 2.4-14.5 1.8-19-0.2-1.6-0.3-3.4-0.3-3.9 0-0.5-0.2-1.1-0.3-1.2-0.2-0.2-0.3-0.9-0.4-1.6 0-0.6-0.2-1.4-0.3-1.7-0.6-1.2-1.8-4-2.3-5.5-0.3-0.9-0.8-2-1.2-2.4-0.4-0.5-1-1.5-1.4-2.2-2.8-5.5-15.1-13.6-22.7-14.9-0.9-0.2-3-0.6-4.7-1l-3.1-0.7h-63.1l-0.1 55.8c0 39 0.1 55.9 0.3 56.2 0.2 0.3 1.5 0.4 4.2 0.4 2.2 0 5 0.1 6.2 0.2 1.2 0.1 2.8 0 3.4-0.2 4.2-1 4.1-1 5.3-0.6 1.4 0.5 9.4 0.7 9.7 0.2 0.1-0.2 0.4-0.2 0.9 0.1 0.8 0.3 3.7 0.5 6.8 0.3 3.2-0.1 2.9 1.3 2.8-15.7-0.1-12.9-0.1-15 0.4-15.6l0.4-0.7h9.9c5.8 0 10 0.1 10.3 0.3 0.9 0.6-1.2 0.7-10.3 0.8-6.6 0-8.9 0.1-9.1 0.4-0.2 0.2-0.4 5.6-0.5 15.1-0.1 16.5 0 15.6-2.3 16.4-1.1 0.3-11 0.5-21.3 0.3-1.8 0-3.5-0.1-3.7 0-1.7 0.2-10.5-0.1-10.9-0.3-0.3-0.2-0.7-0.3-0.8-0.2-0.2 0.2-1.4-0.4-2-1-0.6-0.5-0.8-26.1-1.1-102.8 0-9.3 0.2-10.2 2-10.9 0.6-0.3 42-0.2 48.4 0.1zm-3 28.4c7.2 0 8.3 0.3 10.9 2.9 0.8 0.8 1.5 1.7 1.5 1.8 0 0.2 0.3 0.7 0.7 1.2 2.7 3.6 1.5 13.3-2 17-1.8 1.8-3.8 2.7-7.6 3.3-4.3 0.7-7.9 0.4-9.1-0.9-0.6-0.5-1.1-24.2-0.5-24.8 0.3-0.4 1.5-0.5 6.1-0.5zm-4.9 1.4c-0.9 0.6-0.9 22.2 0 23.1 0.7 0.7 10 0.7 10.6 0 0.2-0.2 0.7-0.3 1.2-0.3 1.3 0 3.1-1.4 4.1-3.1 0.6-0.9 1.1-1.6 1.2-1.6 0.1 0 0.2-0.4 0.2-0.9 0-0.5 0.2-1 0.3-1.1 0.2-0.1 0.3-2.1 0.3-4.9 0-3-0.1-4.8-0.3-4.8-0.1 0-0.3-0.4-0.3-0.9 0-0.6-0.1-1-0.2-1-0.2 0-0.6-0.5-0.9-1.2-0.4-0.7-0.7-1.1-0.8-1-0.2 0.1-0.2-0.1-0.2-0.4 0-0.3-0.3-0.5-0.7-0.5-0.3 0-0.6-0.1-0.6-0.2 0-0.4-1.6-1-2.5-1-0.5 0-0.9-0.1-1-0.3-0.3-0.5-9.8-0.4-10.4 0.1zm97.7 49.5c0 0.9 0 2.5 0 3.5-0.1 1-0.1 0.2-0.1-1.8 0-1.9 0-2.7 0.1-1.7zm-29-0.1c-0.2 0.2-0.4 0.3-0.5 0.2-0.2-0.1-0.1-0.4 0.2-0.5 0.5-0.4 0.8-0.1 0.3 0.3zm7.2 2.9l0.2 0.8c0.2 0.5 0.2 0.8-0.1 1-0.5 0.3-0.6 0.1-0.4-0.9zm-2.2 1.5c0 0.5-0.1 0.8-0.3 0.8-0.2 0-0.3-0.7 0-1.5 0.1-0.3 0.3 0.1 0.3 0.7zm5.3 5.8c1.1 0.1 0.8 0.6-0.4 0.6-0.5 0-0.8-0.2-0.7-0.3 0.1-0.2 0.6-0.3 1.1-0.3zm18.7 15.8c0.1 0.3 0.1 0.8 0 1.1 0 0.3-0.1 0-0.1-0.5 0-0.6 0.1-0.9 0.1-0.6zm0.4 7.6c0 1.6 0 4.1 0 5.7-0.1 1.6-0.1 0.3-0.1-2.8 0-3.2 0-4.5 0.1-2.9zm38.3 71.3c0.8 0 1.2 0.1 0.8 0.1-0.4 0.1-1.1 0.1-1.5 0-0.5 0-0.2-0.1 0.7-0.1z"/>
		<path id="path4" fill-rule="evenodd" class="s4" d="m276.4 129c0.1 0.2 1.3 0.3 2.7 0.3 1.3 0 2.7 0.1 3 0.3 0.3 0.1 1.1 0.3 1.7 0.4 0.7 0.1 1.6 0.3 2 0.5 0.3 0.2 1.1 0.4 1.7 0.4 0.6 0 1.2 0.1 1.3 0.3 0.1 0.1 0.7 0.3 1.2 0.3 0.6 0 1.1 0.1 1.1 0.3 0 0.2 0.5 0.3 1.1 0.3 0.6 0 1.1 0.1 1.2 0.3 0.1 0.1 0.6 0.4 1.1 0.5 0.5 0.1 0.9 0.3 0.9 0.5 0 0.1 0.5 0.2 1 0.2 0.5 0 0.9 0.2 0.9 0.4 0 0.1 0.3 0.3 0.8 0.3 0.4 0 0.7 0.1 0.7 0.2 0 0.2 0.4 0.4 0.8 0.5 0.4 0.1 0.8 0.3 0.8 0.5 0 0.2 0.3 0.3 0.6 0.3 0.3 0 0.6 0.1 0.6 0.3 0 0.2 0.2 0.3 0.4 0.3 0.2 0 0.8 0.3 1.3 0.7 0.5 0.4 1.3 0.9 1.8 1.2 0.5 0.2 0.9 0.5 0.9 0.7 0 0.1 0.2 0.2 0.4 0.2 0.2 0 1.1 0.7 2 1.5 0.8 0.8 2 1.9 2.7 2.5 1.7 1.6 4.8 4.9 4.8 5.2 0 0.2 1.4 2.1 2.4 3.4 0.2 0.2 0.3 0.7 0.3 1 0 0.4 0.2 0.6 0.3 0.6 0.2 0 0.4 0.2 0.4 0.4 0 0.2 0.3 0.8 0.7 1.4 0.5 0.5 0.8 1.2 0.8 1.5 0 0.2 0.1 0.5 0.3 0.6 0.2 0.1 0.3 0.5 0.3 1 0 0.4 0.2 0.7 0.3 0.7 0.2 0 0.3 0.3 0.3 0.7 0 0.5 0.3 1 0.5 1.2 0.3 0.2 0.5 0.6 0.5 0.8 0 0.6 0.5 2.5 0.9 3.3 0.2 0.3 0.3 1 0.3 1.6 0 0.6 0.1 1.1 0.3 1.1 0.4 0 1 2.8 1.2 5.3 0 1.2 0.2 2.1 0.4 2.1 0.4 0 0.4 21.2 0 21.5-0.2 0.1-0.3 1.1-0.3 2.1 0 1.1-0.2 2.1-0.4 2.3-0.2 0.2-0.4 1-0.5 1.7 0 0.7-0.2 1.4-0.4 1.6-0.1 0.2-0.3 0.8-0.3 1.3 0 0.6-0.1 1.1-0.3 1.1-0.2 0-0.3 0.4-0.3 1 0 0.6-0.2 1.1-0.4 1.2-0.2 0-0.4 0.5-0.4 1-0.1 0.5-0.3 1-0.4 1-0.2 0.1-0.4 0.5-0.4 0.9 0 0.4-0.1 0.7-0.3 0.7-0.1 0-0.3 0.4-0.3 0.8 0 0.4-0.1 0.8-0.3 0.8-0.2 0-0.3 0.2-0.3 0.4 0 0.3-0.3 1.1-0.8 1.7-0.4 0.7-0.7 1.4-0.7 1.6 0 0.2-0.2 0.3-0.4 0.3-0.1 0-0.3 0.3-0.3 0.6 0 0.4-0.1 0.6-0.3 0.6-0.1 0-0.3 0.3-0.3 0.5 0 0.3-0.3 0.8-0.8 1.3-0.4 0.4-0.7 0.9-0.7 1.1 0 0.6-6.1 7-6.7 7-0.1 0-0.6 0.5-1.1 1.1-0.8 1.1-2.2 2.1-2.5 1.8-0.2-0.1-0.2 0-0.2 0.2 0 0.5-0.9 1.2-1.5 1.3-0.2 0-0.8 0.3-1.3 0.7-0.4 0.5-1 0.8-1.2 0.8-0.2 0-0.4 0.2-0.4 0.3 0 0.2-0.3 0.3-0.6 0.3-0.3 0-0.6 0.2-0.6 0.3 0 0.2-0.4 0.3-0.8 0.3-0.4 0-0.8 0.2-0.8 0.4 0 0.1-0.3 0.3-0.7 0.5-0.5 0.1-0.8 0.3-0.8 0.4 0 0.2-0.3 0.3-0.8 0.3-0.4 0-0.8 0.1-0.9 0.3-0.1 0.2-0.5 0.3-1 0.3-0.4 0-0.7 0.2-0.7 0.3 0 0.2-0.5 0.3-1.1 0.3-0.5 0-1.1 0.2-1.1 0.4-0.1 0.1-0.5 0.3-0.9 0.4-0.4 0-1.2 0.2-1.6 0.4-0.5 0.2-1.3 0.4-1.8 0.4-0.5 0-0.9 0.1-0.9 0.3 0 0.2-0.8 0.3-1.7 0.3-1 0-1.7 0.1-1.7 0.3 0 0.2-0.9 0.3-2 0.3-1.2 0-2.1-0.1-2.1-0.3 0-0.2 0.7-0.3 1.4-0.3 0.8 0 1.9-0.2 2.6-0.5 0.6-0.2 1.5-0.4 2.1-0.4 0.6 0 1.3-0.2 1.6-0.3 0.6-0.4 4.5-1.5 5.9-1.8 0.5-0.1 1.1-0.3 1.2-0.4 0.1-0.2 0.5-0.3 0.9-0.3 0.4 0 0.7-0.2 0.7-0.3 0-0.2 0.3-0.3 0.7-0.3 0.3 0 1.1-0.3 1.7-0.7 0.7-0.4 1.6-0.9 2.1-1.2 0.5-0.2 1.2-0.6 1.4-0.8 0.3-0.2 1.3-0.8 2.3-1.3 1.1-0.6 2-1.1 2-1.2 0.1-0.2 1.2-1.1 2.4-2 3.2-2.6 9.1-9.3 9.1-10.3 0-0.1 0.3-0.6 0.6-1 0.7-1.1 2.8-5 2.8-5.4 0-0.1 0.3-1 0.8-1.9 0.4-0.9 0.7-1.8 0.7-2.1 0-0.3 0.2-0.6 0.3-0.6 0.2 0 0.4-0.4 0.5-1 0.1-0.6 0.5-2.6 0.9-4.6 0.5-1.9 0.9-4.3 1-5.2 0.1-1 0.3-2.2 0.5-2.8 0.3-1.3 0.1-17.1-0.3-20.3-0.4-3-1.3-7.1-1.8-8.8-0.2-0.8-0.4-1.8-0.4-2.1 0-0.4-0.2-0.7-0.3-0.7-0.2 0-0.4-0.2-0.4-0.5 0-0.3-0.3-1.3-0.8-2.2-0.4-1-0.9-2.1-1.1-2.5-3.6-9.2-13.5-18.6-24.8-23.4-0.7-0.3-1.7-0.7-2.3-0.9-0.5-0.3-1.3-0.5-1.6-0.5-0.3 0-0.7-0.1-0.8-0.3-0.1-0.2-0.6-0.3-1.2-0.3-0.5 0-1.1-0.1-1.2-0.3-0.2-0.1-1.1-0.4-2-0.6-1-0.1-2.4-0.5-3.3-0.7-0.8-0.2-2.7-0.4-4-0.5-1.4 0-2.7-0.3-2.9-0.5-0.5-0.4-57.3-0.3-57.7 0.1-0.1 0.1-0.2 25.5-0.1 56.4 0 41.1 0 56.2-0.3 56.2-0.2 0-0.4-10.2-0.5-37.2-0.1-20.4-0.3-37.8-0.5-38.6-0.3-1.8-0.2-27.7 0.1-30.3 0.1-1.1 0.3-3.1 0.3-4.4 0.1-1.3 0.3-2.6 0.5-2.8 0.5-0.6 58.3-0.8 58.6-0.2zm-84.6 8.9c0.5 0.1 0.6 0.2 0.3 0.4q-0.5 0.3 0.4 0.3c0.5 0 0.8 0.1 0.8 0.3 0 0.2 0.2 0.3 0.4 0.2 0.1-0.1 0.3 0 0.3 0.2 0 0.3 0.1 0.5 0.3 0.6 0.4 0.1 0.4 5.3 0 5.4-0.2 0.1-0.3 0.3-0.3 0.4 0 0.5-1.6 1.8-2.1 1.9-0.3 0-0.4 0.1-0.2 0.3 0.1 0.2 0 0.3-0.1 0.3q-1.2-0.3-1.2 0.6c0 0.4-0.2 0.8-0.4 0.9-0.3 0.1-0.4-0.1-0.3-0.8 0.1-0.6 0-1-0.5-1.5-2.5-2.3-2.2-7.9 0.5-7.9 0.3 0 0.6-0.1 0.6-0.3 0-1.2-4.5 0.4-5.1 1.8-0.2 0.4-0.5 0.7-0.6 0.7-0.1 0-0.2 0.8-0.2 1.8 0 1.8-0.4 2.4-0.8 1.4-0.8-2.2 1.1-6 3.1-6.2 0.5-0.1 1.1-0.3 1.2-0.6 0.4-0.5 2.5-0.6 3.9-0.2zm-3 3.2c-0.8 1.3-0.3 5.2 0.6 5.2 0.3 0 2.4-2.2 2.4-2.5 0-0.1 0.3-0.3 0.6-0.3q0.6 0 0.6 0.7c0 0.3 0.2 0.6 0.3 0.6 0.2 0 0.4-0.9 0.4-2.2 0-1.2-0.2-2.2-0.4-2.2-0.1 0-0.3 0.3-0.3 0.6 0 0.3-0.2 0.8-0.4 1q-0.5 0.4-0.5 0c0-0.2-0.3-0.6-0.6-0.9-0.8-0.8-2.2-0.8-2.7 0zm4.1 4c-0.3-0.2-1.7 1-1.7 1.4 0 0.3 0.7 0.1 1.3-0.5 0.4-0.4 0.6-0.7 0.4-0.9zm-7.9 1.5c0 0.9-0.6 1.4-0.7 0.7 0-0.2 0-0.5-0.1-0.7 0-0.3 0-0.5 0.1-0.7 0.3-0.5 0.7-0.1 0.7 0.7zm0.3 1c0.2 0 0.3 0.2 0.3 0.4 0 0.3-0.3 0.5-0.6 0.5-0.3 0-0.6 0.1-0.6 0.3 0 0.2-0.3 0.3-0.7 0.3-0.3 0-0.8 0.2-1 0.4-1.6 1.3-2.7 2.4-2.7 2.9 0 0.2-0.1 0.4-0.3 0.4-0.1 0-0.3-0.1-0.3-0.3 0-0.9 2.2-3.4 2.9-3.4 0.3 0 0.5-0.1 0.5-0.3 0-0.2 0.3-0.3 0.7-0.3 0.3 0 0.8-0.2 1.1-0.5 0.2-0.2 0.6-0.4 0.7-0.4zm11.7 1.4c0 0.2-0.2 0.4-0.3 0.4-0.1 0-0.3 0.2-0.3 0.3 0 0.2 0.3 0.3 0.7 0.3q0.6 0 0.6 0.7c0 0.5-0.2 0.6-0.7 0.5-0.4-0.1-0.9-0.2-1.1-0.2-0.2 0-0.4-0.4-0.4-0.8 0-0.5 0.2-1 0.4-1.2 0.5-0.6 1.1-0.6 1.1 0zm3.9 0.1c0.8 0 0.8 0.1 0.7 1-0.1 1.5-2.1 1.6-2.1 0.1 0-0.6 0.2-0.7 0.6-0.6q0.5 0.2 0.2-0.1-0.2-0.4 0.6-0.4zm-13.7 2.3c0 0.3 0.1 0.5 0.3 0.5 0.1 0 0.3 0.3 0.3 0.6 0 0.4 0.1 0.6 0.3 0.6 0.2 0 0.3 0.2 0.3 0.3 0 0.6-0.5 0.3-0.9-0.5-0.3-0.5-0.7-1.1-0.9-1.4-0.2-0.3-0.3-0.6-0.2-0.8 0.1-0.1-0.1-0.4-0.5-0.4q-0.6-0.2-0.9 0.4-0.4 0.7-0.7 0.3-0.3-0.3 0.1-0.8c0.9-1 2.7-0.3 2.8 1.2zm4.2-0.6c0.3 0.5 0.7 1 0.9 1.2 0.2 0.1 0.5 0.6 0.7 1.1 0.3 0.5 0.5 1 0.6 1 0.4 0 1.3 1.7 1.1 1.9-0.3 0.4-0.7 0.3-0.7-0.2 0-0.2-0.4-0.7-0.8-1.2-0.4-0.4-0.8-1-0.8-1.1 0-0.2-0.1-0.4-0.3-0.4-0.2 0-0.3-0.2-0.3-0.4 0-0.3-0.1-0.5-0.3-0.5-0.2 0-0.3-0.2-0.3-0.4 0-0.3-0.2-0.6-0.5-0.8-0.2-0.2-0.4-0.6-0.4-0.9 0-0.7 0.6-0.3 1.1 0.7zm7.7 0.2c0.5 0 0.7 3.5 0.1 3.8-0.1 0.1-0.3 0.6-0.3 1.1 0 0.5-0.1 0.9-0.3 0.9-0.2 0-0.3 0.3-0.3 0.6 0 0.4-0.1 0.7-0.3 0.8-0.5 0.3-0.4 0.9 0.3 1.7 0.3 0.3 0.6 0.7 0.6 0.8 0 0.5 1 1.1 1.7 1.1 1.9 0 2.3 1.9 0.5 2.3-0.1 0-0.3 0.1-0.5 0.2-0.2 0.1-0.6 0-1-0.2-0.6-0.3-0.6-0.4-0.2-0.6q0.9-0.3-1-2.2c-0.6-0.6-1-1.2-1-1.3 0-0.2-0.2-0.4-0.3-0.4-0.2 0-0.3-0.2-0.3-0.5 0-0.7 0.6-2.3 1-2.3 0.1 0 0.2-0.4 0.2-1 0-1 0.2-1.3 1-1.2 0.1 0.1 0.1-0.2-0.1-0.5-0.1-0.3-0.3-1.2-0.3-1.9 0-0.9 0.1-1.2 0.5-1.2zm-15.3 0.4c0.1 0.1 0.3 0.5 0.3 0.8 0 0.3-0.2 0.7-0.3 0.8-0.2 0.1-0.4-0.2-0.4-0.8 0-0.6 0.2-0.9 0.4-0.8zm13.9 1.9c0 1-0.1 1.4-0.4 1.3-0.5-0.2-0.7-1-0.4-2 0.3-1.2 0.8-0.8 0.8 0.7zm-18.6 0c0.4 0.4 0.3 5.4-0.1 5.5-0.4 0.1-0.6-4.5-0.3-5.3q0.1-0.5 0.4-0.2zm4 0.6c0.2 0.1 0.3 0.8 0.3 1.6 0 0.7-0.1 1.3-0.3 1.3-0.1 0-0.3-0.7-0.3-1.5 0-1 0.1-1.5 0.3-1.4zm5.8 0.5c0.2 0 0.4 0.2 0.4 0.4 0 0.2 0.2 0.5 0.4 0.6 0.2 0.1 0.3 0.2 0.1 0.4-0.1 0.2-0.3 0.1-0.4-0.1-0.1-0.2-0.3-0.4-0.6-0.4-0.2 0-0.4-0.2-0.4-0.5 0-0.2 0.2-0.4 0.5-0.4zm8.2 1.2q0 0.9-0.5 0.9c-0.5 0-0.7-1.2-0.3-1.6 0.5-0.5 0.8-0.2 0.8 0.7zm-6.3 1.6c0.3 0.5 0.6 0.9 0.9 0.9 0.2 0 0.4 0.2 0.4 0.4 0 0.3 0.2 0.5 0.3 0.5 0.2 0 0.3 0.2 0.3 0.5 0 0.2 0.2 0.4 0.3 0.4 0.2 0 0.3 0.4 0.3 0.8 0 0.6-0.1 0.7-0.4 0.6q-0.5-0.2-0.5 0.3c0 0.6 0.5 0.7 0.8 0.2 0.3-0.5 1.1-0.3 1.8 0.5 0.3 0.4 0.9 0.7 1.2 0.7 0.3 0 0.5 0.2 0.4 0.3-0.3 0.6-1.5 0.4-2-0.3-0.3-0.5-0.5-0.6-0.7-0.3-0.2 0.2-0.7 0.3-1.1 0.3-0.4 0-0.6 0.2-0.6 0.3 0.3 0.3-1.7 0.7-2.3 0.5-0.3-0.1-0.6 0-0.8 0.3-0.4 0.4-2.7 0.3-3.4-0.2-0.2-0.1-0.4-0.2-0.6-0.2-0.7 0.1-1.7-0.1-1.7-0.4 0-0.3 2.1-0.4 2.3 0 0.1 0.3 0.8 0.4 2.5 0.4 1.4-0.1 1.5-0.6 0.1-0.9-1.6-0.4-1.4-1 0.4-1 1.2 0 1.6 0.1 1.6 0.5 0 0.2 0.2 0.4 0.7 0.4 1 0 1.1-0.5 0.2-0.7-0.9-0.2-0.8-0.8 0.1-0.8 0.4 0 0.9-0.2 1.1-0.5q0.4-0.5 0.1-0.5c-0.2 0-0.6-0.4-0.9-1-0.3-0.5-0.8-1.2-1.1-1.5-0.3-0.2-0.6-0.7-0.6-1 0-0.8 0.5-0.6 0.9 0.5zm4.1-1c0.2 0 0.3 0.2 0.3 0.3 0 0.2 0.3 0.3 0.6 0.3 0.4 0 0.6 0.3 0.6 0.5 0 0.3-0.2 0.5-0.6 0.5-0.3 0-0.6-0.2-0.6-0.5 0-0.2-0.1-0.5-0.3-0.5-0.2 0-0.3-0.1-0.3-0.3 0-0.1 0.1-0.3 0.3-0.3zm-11.3 1.6c0.3 0 0.5 0.3 0.5 0.7 0 0.8 1.6 2.7 2.3 2.7 0.3 0 0.5 0.1 0.5 0.3 0 0.2-0.3 0.3-0.7 0.3-0.7 0-2.1-1.2-2.1-1.7 0-0.2-0.1-0.5-0.3-0.5-0.1-0.1-0.3-0.5-0.5-1-0.1-0.6-0.1-0.8 0.3-0.8zm-4 1.5c0.2 0 0.4 0.2 0.4 0.5 0 0.2-0.1 0.4-0.2 0.4-0.2 0-0.4-0.2-0.5-0.4-0.1-0.3 0-0.5 0.3-0.5zm93.7 1.9c0.2 0.2 0.5 0.3 0.7 0.3 0.3 0 0.6 0.2 0.9 0.4 0.8 0.7 1.2 1 2.1 1.4 1.1 0.6 3.9 3.2 3.9 3.7 0 0.1 0.2 0.4 0.4 0.6 1 0.8 2.7 5.2 3.1 7.7 0.1 0.5 0.4 1.8 0.8 3 0.7 2.5 0.9 10.7 0.3 13.9-1.4 7.6-3.1 11.4-6.6 14.7-0.9 0.9-1.8 1.6-1.9 1.6-0.1 0-0.5 0.3-0.9 0.7-1 0.9-3.3 1.7-5.9 2.1-5.7 0.8-7 1-9.6 0.8-4.6-0.2-4.1 3-4.1-26.1 0-26.4-0.1-25.5 1.4-25.8 2.3-0.6 14.5 0.2 15.4 1zm-93-0.6c0.4 0 1.7 1.5 1.5 1.7-0.2 0.3-1.7-0.9-1.7-1.4 0-0.2 0.1-0.3 0.2-0.3zm77.5 0.5c-0.7 0.2-0.6 48.8 0 49.5 0.7 0.6 13.8 0.1 13.8-0.6 0-0.1 0.4-0.3 0.9-0.3 0.5 0 1.1-0.2 1.3-0.4 0.2-0.3 0.5-0.5 0.7-0.4 0.2 0.1 0.6-0.2 1-0.6 0.4-0.4 0.8-0.7 1-0.7 0.5 0 3.5-3 3.5-3.4 0-0.2 0.3-0.7 0.7-1.2 0.5-0.5 0.8-1 0.8-1.2 0-0.2 0.2-0.4 0.3-0.4 0.2 0 0.3-0.4 0.3-0.8 0-0.4 0.2-0.8 0.3-0.8 0.2 0 0.4-0.4 0.4-0.9 0-0.5 0.1-0.9 0.2-1 0.2-0.1 0.4-0.9 0.5-1.7 0-0.8 0.3-1.5 0.5-1.6 0.2 0 0.3-1 0.3-2.3 0-1.3 0.1-2.4 0.3-2.5 0.2-0.1 0.3-2.1 0.3-5 0-3-0.1-4.8-0.3-4.8-0.2 0-0.3-0.8-0.3-1.8 0-1-0.1-1.9-0.3-1.9-0.2-0.1-0.4-0.6-0.5-1.1 0-0.6-0.2-1.2-0.3-1.4-0.4-0.6-1.1-2.5-1.1-3 0-0.2-0.3-0.7-0.7-1.2-0.5-0.5-0.8-0.9-0.8-1.1 0-0.1-0.3-0.5-0.6-0.9-0.4-0.4-0.7-0.9-0.7-1.1 0-0.6-3.7-3.5-4.4-3.5-0.3 0-0.5-0.1-0.5-0.3 0-0.1-0.3-0.3-0.6-0.3-0.3 0-0.6-0.1-0.8-0.2-0.1-0.1-0.8-0.4-1.6-0.6-1.5-0.4-12.9-0.9-13.6-0.5zm-75.1 1.3c0.2 0 0.4 0.2 0.4 0.3 0 0.2-0.2 0.3-0.4 0.3-0.3 0-0.5-0.1-0.5-0.3 0-0.1 0.2-0.3 0.5-0.3zm91.1 79.5c3.2 0 4 0.1 3.8 0.4-0.5 0.4-7.2 0.4-7.7-0.1-0.2-0.2 1.3-0.3 3.9-0.3zm-42.1 0.5c3.3 0.1 11.1 0.1 17.3 0.1 8.4 0.1 11.2 0.1 10.7 0.4-0.9 0.6-39.1 0.8-40.1 0.2-0.7-0.4-0.4-0.4 2.7-0.6 1.8-0.1 6.1-0.1 9.4-0.1z"/>
	</g>
</svg>